<svg 
    width="7" 
    height="14" 
    viewBox="0 0 7 14" 
    fill="none" 
    xmlns="http://www.w3.org/2000/svg"
>
    <path 
        d="M3.17118 13.9609C2.74603 13.9609 2.34819 13.881 1.97766 13.7211C1.60712 13.565 1.28144 13.3466 1.00061 13.0658C0.71978 12.785 0.499408 12.4593 0.339492 12.0887C0.183477 11.7221 0.105469 11.3282 0.105469 10.9069C0.105469 10.4623 0.195178 10.0469 0.374596 9.66076C0.554014 9.27462 0.81924 8.92358 1.17028 8.60765C1.23268 8.54915 1.27364 8.49649 1.29314 8.44969C1.31264 8.40288 1.32239 8.33658 1.32239 8.25077V2.96184C1.32239 2.5679 1.4004 2.22076 1.55641 1.92043C1.71243 1.6201 1.9289 1.38608 2.20583 1.21836C2.48276 1.04675 2.80454 0.960938 3.17118 0.960938C3.53391 0.960938 3.85179 1.04675 4.12482 1.21836C4.40175 1.38608 4.61627 1.6201 4.76838 1.92043C4.9244 2.22076 5.00241 2.5679 5.00241 2.96184V8.25077C5.00241 8.33658 5.01216 8.40288 5.03166 8.44969C5.05116 8.49649 5.09212 8.54915 5.15452 8.60765C5.50556 8.92358 5.77079 9.27462 5.9502 9.66076C6.12962 10.0469 6.21933 10.4623 6.21933 10.9069C6.21933 11.3282 6.13937 11.7221 5.97946 12.0887C5.82344 12.4593 5.60502 12.785 5.32419 13.0658C5.04726 13.3466 4.72353 13.565 4.35299 13.7211C3.98246 13.881 3.58852 13.9609 3.17118 13.9609ZM3.17118 13.1126C3.57292 13.1126 3.93955 13.0131 4.27109 12.8142C4.60262 12.6153 4.86785 12.3481 5.06676 12.0127C5.26568 11.6812 5.36514 11.3126 5.36514 10.9069C5.36514 10.5403 5.28129 10.199 5.11357 9.88308C4.94585 9.56715 4.70598 9.30582 4.39395 9.0991C4.30424 9.0367 4.23988 8.97234 4.20088 8.90603C4.16187 8.83973 4.14237 8.74612 4.14237 8.6252V2.99694C4.14237 2.64591 4.05071 2.36313 3.86739 2.14861C3.68798 1.93018 3.4559 1.82097 3.17118 1.82097C2.87475 1.82097 2.63487 1.93018 2.45155 2.14861C2.27214 2.36313 2.18243 2.64591 2.18243 2.99694V8.6252C2.18243 8.74612 2.16292 8.83973 2.12392 8.90603C2.08492 8.97234 2.02056 9.0367 1.93085 9.0991C1.61882 9.30582 1.37895 9.56715 1.21123 9.88308C1.04351 10.199 0.959654 10.5403 0.959654 10.9069C0.959654 11.3126 1.05911 11.6812 1.25803 12.0127C1.45695 12.3481 1.72218 12.6153 2.05371 12.8142C2.38915 13.0131 2.76163 13.1126 3.17118 13.1126ZM3.16532 12.3228C2.904 12.3228 2.66607 12.2584 2.45155 12.1297C2.23703 12.0049 2.06541 11.8352 1.9367 11.6207C1.81189 11.4023 1.74948 11.1624 1.74948 10.9011C1.74948 10.6281 1.81969 10.3843 1.9601 10.1698C2.10052 9.95134 2.28189 9.77972 2.50421 9.65491C2.60172 9.6042 2.66803 9.55155 2.70313 9.49694C2.74213 9.44234 2.76163 9.34288 2.76163 9.19856V7.18011C2.76163 7.0709 2.80064 6.97729 2.87865 6.89928C2.95665 6.81737 3.05221 6.77642 3.16532 6.77642C3.27454 6.77642 3.36814 6.81737 3.44615 6.89928C3.52416 6.97729 3.56316 7.0709 3.56316 7.18011V9.19856C3.56316 9.34288 3.58072 9.44234 3.61582 9.49694C3.65482 9.55155 3.72308 9.6042 3.82059 9.65491C4.04291 9.77972 4.22428 9.95134 4.36469 10.1698C4.50511 10.3843 4.57532 10.6281 4.57532 10.9011C4.57532 11.1624 4.51096 11.4023 4.38225 11.6207C4.25743 11.8352 4.08777 12.0049 3.87325 12.1297C3.65872 12.2584 3.42275 12.3228 3.16532 12.3228ZM3.16532 6.19136C3.05221 6.19136 2.95665 6.15236 2.87865 6.07435C2.80064 5.99244 2.76163 5.89688 2.76163 5.78767C2.76163 5.67846 2.80064 5.58485 2.87865 5.50684C2.95665 5.42493 3.05221 5.38398 3.16532 5.38398C3.27454 5.38398 3.36814 5.42493 3.44615 5.50684C3.52416 5.58485 3.56316 5.67846 3.56316 5.78767C3.56316 5.89688 3.52416 5.99244 3.44615 6.07435C3.36814 6.15236 3.27454 6.19136 3.16532 6.19136ZM3.16532 4.79307C3.05221 4.79307 2.95665 4.75407 2.87865 4.67606C2.80064 4.59805 2.76163 4.50249 2.76163 4.38938C2.76163 4.28017 2.80064 4.18656 2.87865 4.10855C2.95665 4.02664 3.05221 3.98569 3.16532 3.98569C3.27454 3.98569 3.36814 4.02664 3.44615 4.10855C3.52416 4.18656 3.56316 4.28017 3.56316 4.38938C3.56316 4.50249 3.52416 4.59805 3.44615 4.67606C3.36814 4.75407 3.27454 4.79307 3.16532 4.79307ZM3.16532 3.40063C3.05221 3.40063 2.95665 3.36163 2.87865 3.28362C2.80064 3.20561 2.76163 3.11005 2.76163 2.99694C2.76163 2.88773 2.80064 2.79412 2.87865 2.71611C2.95665 2.6342 3.05221 2.59325 3.16532 2.59325C3.27454 2.59325 3.36814 2.6342 3.44615 2.71611C3.52416 2.79412 3.56316 2.88773 3.56316 2.99694C3.56316 3.11005 3.52416 3.20561 3.44615 3.28362C3.36814 3.36163 3.27454 3.40063 3.16532 3.40063Z" 
        fill="white"
    />
</svg>
