<svg width="25" height="24" viewBox="0 0 25 24" fill="none" xmlns="http://www.w3.org/2000/svg">
<path d="M8.42175 7.95275L16.4218 15.9528" stroke="#454545" stroke-width="1.8" stroke-linecap="round" stroke-linejoin="round"/>
<path d="M8.42175 21.9527L2.83575 16.3667C2.05475 15.5857 2.05475 14.3198 2.83575 13.5388L13.7887 2.58575C14.5697 1.80475 15.8357 1.80475 16.6167 2.58575L21.7887 7.75775C22.5697 8.53875 22.5697 9.80475 21.7887 10.5858L10.4218 21.9527" stroke="#454545" stroke-width="1.8" stroke-linecap="round" stroke-linejoin="round"/>
<path d="M16.6168 2.58575C15.8358 1.80475 14.5698 1.80475 13.7888 2.58575L8.31226 8.06225L16.1053 16.2692L21.7888 10.5858C22.5698 9.80475 22.5698 8.53875 21.7888 7.75775L16.6168 2.58575Z" fill="#454545" stroke="#454545" stroke-width="1.8" stroke-linecap="round" stroke-linejoin="round"/>
<path d="M3.42175 21.9528L21.4218 21.9528" stroke="#454545" stroke-width="1.8" stroke-linecap="round" stroke-linejoin="round"/>
</svg>
