<svg width="25" height="25" viewBox="0 0 25 25" fill="none" xmlns="http://www.w3.org/2000/svg">
<path d="M8.98827 18.698C8.49743 18.698 8.05009 18.5769 7.64624 18.3345C7.24239 18.0922 6.9193 17.7691 6.67699 17.3653C6.43468 16.9614 6.31353 16.5141 6.31353 16.0233C6.31353 15.5324 6.43468 15.0851 6.67699 14.6812C6.9193 14.2774 7.24239 13.9543 7.64624 13.712C8.05009 13.4697 8.49743 13.3485 8.98827 13.3485C9.47911 13.3485 9.92645 13.4697 10.3303 13.712C10.7342 13.9543 11.0572 14.2774 11.2995 14.6812C11.5419 15.0851 11.663 15.5324 11.663 16.0233C11.663 16.5141 11.5388 16.9614 11.2902 17.3653C11.0479 17.7691 10.7248 18.0922 10.321 18.3345C9.91713 18.5769 9.47289 18.698 8.98827 18.698ZM8.98827 17.2535C9.3362 17.2535 9.62822 17.1354 9.86432 16.8993C10.1004 16.657 10.2185 16.365 10.2185 16.0233C10.2185 15.6691 10.1004 15.374 9.86432 15.1379C9.62822 14.9018 9.3362 14.7837 8.98827 14.7837C8.64655 14.7837 8.35453 14.9018 8.11222 15.1379C7.87612 15.374 7.75807 15.6691 7.75807 16.0233C7.75807 16.365 7.87612 16.657 8.11222 16.8993C8.35453 17.1354 8.64655 17.2535 8.98827 17.2535ZM3.61082 14.8956H7.23617V17.1416H3.61082C3.31881 17.1416 3.06718 17.0298 2.85593 16.8061C2.64469 16.5762 2.53906 16.3153 2.53906 16.0233C2.53906 15.7188 2.64469 15.4548 2.85593 15.2311C3.06718 15.0074 3.31881 14.8956 3.61082 14.8956ZM21.4393 14.8956C21.75 14.8956 22.0109 15.0074 22.2222 15.2311C22.4334 15.4486 22.5391 15.7126 22.5391 16.0233C22.5391 16.3215 22.4334 16.5824 22.2222 16.8061C22.0109 17.0298 21.75 17.1416 21.4393 17.1416H10.6938V14.8956H21.4393ZM16.2017 11.6503C15.7109 11.6503 15.2635 11.5291 14.8597 11.2868C14.4558 11.0445 14.1327 10.7214 13.8904 10.3176C13.6481 9.9137 13.5269 9.46636 13.5269 8.97552C13.5269 8.48469 13.6481 8.03735 13.8904 7.63349C14.1327 7.22964 14.4558 6.90656 14.8597 6.66425C15.2635 6.42194 15.7109 6.30078 16.2017 6.30078C16.6925 6.30078 17.1399 6.42194 17.5437 6.66425C17.9476 6.90656 18.2707 7.22964 18.513 7.63349C18.7553 8.03735 18.8764 8.48469 18.8764 8.97552C18.8764 9.46636 18.7553 9.9137 18.513 10.3176C18.2707 10.7214 17.9476 11.0445 17.5437 11.2868C17.1399 11.5291 16.6925 11.6503 16.2017 11.6503ZM16.2017 10.215C16.5496 10.215 16.8416 10.0939 17.0777 9.85157C17.3138 9.60926 17.4319 9.31725 17.4319 8.97552C17.4319 8.62759 17.3138 8.33557 17.0777 8.09948C16.8416 7.86338 16.5496 7.74533 16.2017 7.74533C15.86 7.74533 15.568 7.86338 15.3256 8.09948C15.0895 8.33557 14.9715 8.62759 14.9715 8.97552C14.9715 9.31725 15.0895 9.60926 15.3256 9.85157C15.568 10.0939 15.86 10.215 16.2017 10.215ZM14.4589 7.85717V10.1032H3.62946C3.33123 10.1032 3.07339 9.99137 2.85593 9.7677C2.64469 9.53781 2.53906 9.27375 2.53906 8.97552C2.53906 8.6773 2.64469 8.41635 2.85593 8.19267C3.06718 7.969 3.32502 7.85717 3.62946 7.85717H14.4589ZM21.458 7.85717C21.7624 7.85717 22.0172 7.969 22.2222 8.19267C22.4334 8.41013 22.5391 8.67108 22.5391 8.97552C22.5391 9.27997 22.4334 9.54402 22.2222 9.7677C22.0109 9.99137 21.7562 10.1032 21.458 10.1032H17.9445V7.85717H21.458Z" fill="#454545"/>
</svg>
