<svg width="28" height="6" viewBox="0 0 28 6" fill="none" xmlns="http://www.w3.org/2000/svg"><path d="M3.625 5.875C5.14378 5.875 6.375 4.64378 6.375 3.125C6.375 1.60622 5.14378 0.375 3.625 0.375C2.10622 0.375 0.875 1.60622 0.875 3.125C0.875 4.64378 2.10622 5.875 3.625 5.875Z" fill="#454545"/><path d="M14.125 5.875C15.6438 5.875 16.875 4.64378 16.875 3.125C16.875 1.60622 15.6438 0.375 14.125 0.375C12.6062 0.375 11.375 1.60622 11.375 3.125C11.375 4.64378 12.6062 5.875 14.125 5.875Z" fill="#454545"/><path d="M24.625 5.875C26.1438 5.875 27.375 4.64378 27.375 3.125C27.375 1.60622 26.1438 0.375 24.625 0.375C23.1062 0.375 21.875 1.60622 21.875 3.125C21.875 4.64378 23.1062 5.875 24.625 5.875Z" fill="#454545"/></svg>